<mxfile host="Electron" modified="2024-06-13T04:10:03.591Z" agent="Mozilla/5.0 (Windows NT 10.0; Win64; x64) AppleWebKit/537.36 (KHTML, like Gecko) draw.io/24.5.1 Chrome/124.0.6367.207 Electron/30.0.6 Safari/537.36" etag="LNoKyNZXFmVug1KsF8my" version="24.5.1" type="device">
  <diagram id="C5RBs43oDa-KdzZeNtuy" name="Page-1">
    <mxGraphModel dx="1257" dy="760" grid="1" gridSize="10" guides="1" tooltips="1" connect="1" arrows="1" fold="1" page="1" pageScale="1" pageWidth="827" pageHeight="1169" math="0" shadow="0">
      <root>
        <mxCell id="WIyWlLk6GJQsqaUBKTNV-0" />
        <mxCell id="WIyWlLk6GJQsqaUBKTNV-1" parent="WIyWlLk6GJQsqaUBKTNV-0" />
        <mxCell id="zhYJF1PlnvmegCfIBvpR-4" value="" style="edgeStyle=orthogonalEdgeStyle;rounded=0;orthogonalLoop=1;jettySize=auto;html=1;" edge="1" parent="WIyWlLk6GJQsqaUBKTNV-1" source="zhYJF1PlnvmegCfIBvpR-0" target="zhYJF1PlnvmegCfIBvpR-3">
          <mxGeometry relative="1" as="geometry" />
        </mxCell>
        <mxCell id="zhYJF1PlnvmegCfIBvpR-0" value="Definir T°C° EUR a MEX = 23.70&lt;br&gt;&lt;div&gt;&lt;span style=&quot;background-color: initial;&quot;&gt;Definir T°C° USDa MEX&lt;/span&gt;&amp;nbsp;= 29.75&lt;br&gt;&lt;/div&gt;" style="rounded=1;whiteSpace=wrap;html=1;fillColor=#ffe6cc;strokeColor=#d79b00;" vertex="1" parent="WIyWlLk6GJQsqaUBKTNV-1">
          <mxGeometry x="100" y="130" width="220" height="50" as="geometry" />
        </mxCell>
        <mxCell id="zhYJF1PlnvmegCfIBvpR-2" value="" style="edgeStyle=orthogonalEdgeStyle;rounded=0;orthogonalLoop=1;jettySize=auto;html=1;" edge="1" parent="WIyWlLk6GJQsqaUBKTNV-1" source="zhYJF1PlnvmegCfIBvpR-1" target="zhYJF1PlnvmegCfIBvpR-0">
          <mxGeometry relative="1" as="geometry" />
        </mxCell>
        <mxCell id="zhYJF1PlnvmegCfIBvpR-1" value="Inicio" style="ellipse;whiteSpace=wrap;html=1;aspect=fixed;" vertex="1" parent="WIyWlLk6GJQsqaUBKTNV-1">
          <mxGeometry x="170" y="30" width="80" height="80" as="geometry" />
        </mxCell>
        <mxCell id="zhYJF1PlnvmegCfIBvpR-6" value="" style="edgeStyle=orthogonalEdgeStyle;rounded=0;orthogonalLoop=1;jettySize=auto;html=1;" edge="1" parent="WIyWlLk6GJQsqaUBKTNV-1" source="zhYJF1PlnvmegCfIBvpR-3" target="zhYJF1PlnvmegCfIBvpR-5">
          <mxGeometry relative="1" as="geometry" />
        </mxCell>
        <mxCell id="zhYJF1PlnvmegCfIBvpR-3" value="Mostrar mensaje &quot;Ingrese la modena origen para la conversión: &quot;" style="shape=parallelogram;perimeter=parallelogramPerimeter;whiteSpace=wrap;html=1;fixedSize=1;rounded=1;fillColor=#dae8fc;strokeColor=#6c8ebf;" vertex="1" parent="WIyWlLk6GJQsqaUBKTNV-1">
          <mxGeometry x="125" y="210" width="170" height="85" as="geometry" />
        </mxCell>
        <mxCell id="zhYJF1PlnvmegCfIBvpR-8" value="" style="edgeStyle=orthogonalEdgeStyle;rounded=0;orthogonalLoop=1;jettySize=auto;html=1;" edge="1" parent="WIyWlLk6GJQsqaUBKTNV-1" source="zhYJF1PlnvmegCfIBvpR-5" target="zhYJF1PlnvmegCfIBvpR-7">
          <mxGeometry relative="1" as="geometry" />
        </mxCell>
        <mxCell id="zhYJF1PlnvmegCfIBvpR-5" value="Mostrar mensaje &quot;Ingrese el monto a convertir: &quot;" style="shape=parallelogram;perimeter=parallelogramPerimeter;whiteSpace=wrap;html=1;fixedSize=1;rounded=1;fillColor=#dae8fc;strokeColor=#6c8ebf;" vertex="1" parent="WIyWlLk6GJQsqaUBKTNV-1">
          <mxGeometry x="127.5" y="330" width="165" height="82.5" as="geometry" />
        </mxCell>
        <mxCell id="zhYJF1PlnvmegCfIBvpR-10" value="" style="edgeStyle=orthogonalEdgeStyle;rounded=0;orthogonalLoop=1;jettySize=auto;html=1;" edge="1" parent="WIyWlLk6GJQsqaUBKTNV-1" source="zhYJF1PlnvmegCfIBvpR-7" target="zhYJF1PlnvmegCfIBvpR-29">
          <mxGeometry relative="1" as="geometry">
            <mxPoint x="350" y="494" as="targetPoint" />
          </mxGeometry>
        </mxCell>
        <mxCell id="zhYJF1PlnvmegCfIBvpR-11" value="SI" style="edgeLabel;html=1;align=center;verticalAlign=middle;resizable=0;points=[];" vertex="1" connectable="0" parent="zhYJF1PlnvmegCfIBvpR-10">
          <mxGeometry x="-0.175" y="1" relative="1" as="geometry">
            <mxPoint as="offset" />
          </mxGeometry>
        </mxCell>
        <mxCell id="zhYJF1PlnvmegCfIBvpR-16" value="" style="edgeStyle=orthogonalEdgeStyle;rounded=0;orthogonalLoop=1;jettySize=auto;html=1;" edge="1" parent="WIyWlLk6GJQsqaUBKTNV-1" source="zhYJF1PlnvmegCfIBvpR-7" target="zhYJF1PlnvmegCfIBvpR-15">
          <mxGeometry relative="1" as="geometry" />
        </mxCell>
        <mxCell id="zhYJF1PlnvmegCfIBvpR-26" value="NO" style="edgeLabel;html=1;align=center;verticalAlign=middle;resizable=0;points=[];" vertex="1" connectable="0" parent="zhYJF1PlnvmegCfIBvpR-16">
          <mxGeometry x="-0.2889" y="2" relative="1" as="geometry">
            <mxPoint as="offset" />
          </mxGeometry>
        </mxCell>
        <mxCell id="zhYJF1PlnvmegCfIBvpR-7" value="Si T°C° = eur" style="rhombus;whiteSpace=wrap;html=1;fillColor=#f8cecc;strokeColor=#b85450;" vertex="1" parent="WIyWlLk6GJQsqaUBKTNV-1">
          <mxGeometry x="160" y="440" width="100" height="100" as="geometry" />
        </mxCell>
        <mxCell id="zhYJF1PlnvmegCfIBvpR-17" style="edgeStyle=orthogonalEdgeStyle;rounded=0;orthogonalLoop=1;jettySize=auto;html=1;exitX=1;exitY=0.5;exitDx=0;exitDy=0;" edge="1" parent="WIyWlLk6GJQsqaUBKTNV-1" source="zhYJF1PlnvmegCfIBvpR-9">
          <mxGeometry relative="1" as="geometry">
            <mxPoint x="210" y="870" as="targetPoint" />
            <Array as="points">
              <mxPoint x="770" y="490" />
              <mxPoint x="770" y="870" />
            </Array>
          </mxGeometry>
        </mxCell>
        <mxCell id="zhYJF1PlnvmegCfIBvpR-9" value="Mostrar resultado &quot;El resutlado de la conversion EUR a MEX es:&quot;, resultado" style="shape=parallelogram;perimeter=parallelogramPerimeter;whiteSpace=wrap;html=1;fixedSize=1;rounded=1;fillColor=#dae8fc;strokeColor=#6c8ebf;" vertex="1" parent="WIyWlLk6GJQsqaUBKTNV-1">
          <mxGeometry x="540" y="445" width="180" height="90" as="geometry" />
        </mxCell>
        <mxCell id="zhYJF1PlnvmegCfIBvpR-23" style="edgeStyle=orthogonalEdgeStyle;rounded=0;orthogonalLoop=1;jettySize=auto;html=1;exitX=0.5;exitY=1;exitDx=0;exitDy=0;" edge="1" parent="WIyWlLk6GJQsqaUBKTNV-1" source="zhYJF1PlnvmegCfIBvpR-12">
          <mxGeometry relative="1" as="geometry">
            <mxPoint x="210" y="870" as="targetPoint" />
            <Array as="points">
              <mxPoint x="630" y="870" />
            </Array>
          </mxGeometry>
        </mxCell>
        <mxCell id="zhYJF1PlnvmegCfIBvpR-12" value="Mostrar resultado &quot;El resutlado de la conversion USD a MEX es:&quot;, resultado" style="shape=parallelogram;perimeter=parallelogramPerimeter;whiteSpace=wrap;html=1;fixedSize=1;rounded=1;fillColor=#dae8fc;strokeColor=#6c8ebf;" vertex="1" parent="WIyWlLk6GJQsqaUBKTNV-1">
          <mxGeometry x="540" y="590" width="180" height="80" as="geometry" />
        </mxCell>
        <mxCell id="zhYJF1PlnvmegCfIBvpR-18" value="" style="edgeStyle=orthogonalEdgeStyle;rounded=0;orthogonalLoop=1;jettySize=auto;html=1;" edge="1" parent="WIyWlLk6GJQsqaUBKTNV-1" source="zhYJF1PlnvmegCfIBvpR-15" target="zhYJF1PlnvmegCfIBvpR-31">
          <mxGeometry relative="1" as="geometry" />
        </mxCell>
        <mxCell id="zhYJF1PlnvmegCfIBvpR-24" value="SI" style="edgeLabel;html=1;align=center;verticalAlign=middle;resizable=0;points=[];" vertex="1" connectable="0" parent="zhYJF1PlnvmegCfIBvpR-18">
          <mxGeometry x="-0.027" y="-3" relative="1" as="geometry">
            <mxPoint as="offset" />
          </mxGeometry>
        </mxCell>
        <mxCell id="zhYJF1PlnvmegCfIBvpR-21" value="" style="edgeStyle=orthogonalEdgeStyle;rounded=0;orthogonalLoop=1;jettySize=auto;html=1;" edge="1" parent="WIyWlLk6GJQsqaUBKTNV-1" source="zhYJF1PlnvmegCfIBvpR-15" target="zhYJF1PlnvmegCfIBvpR-20">
          <mxGeometry relative="1" as="geometry">
            <Array as="points">
              <mxPoint x="210" y="720" />
              <mxPoint x="210" y="720" />
            </Array>
          </mxGeometry>
        </mxCell>
        <mxCell id="zhYJF1PlnvmegCfIBvpR-25" value="NO" style="edgeLabel;html=1;align=center;verticalAlign=middle;resizable=0;points=[];" vertex="1" connectable="0" parent="zhYJF1PlnvmegCfIBvpR-21">
          <mxGeometry x="-0.1111" y="-4" relative="1" as="geometry">
            <mxPoint as="offset" />
          </mxGeometry>
        </mxCell>
        <mxCell id="zhYJF1PlnvmegCfIBvpR-15" value="Si T°C° = usd" style="rhombus;whiteSpace=wrap;html=1;fillColor=#f8cecc;strokeColor=#b85450;" vertex="1" parent="WIyWlLk6GJQsqaUBKTNV-1">
          <mxGeometry x="160" y="585" width="100" height="90" as="geometry" />
        </mxCell>
        <mxCell id="zhYJF1PlnvmegCfIBvpR-28" value="" style="edgeStyle=orthogonalEdgeStyle;rounded=0;orthogonalLoop=1;jettySize=auto;html=1;" edge="1" parent="WIyWlLk6GJQsqaUBKTNV-1" source="zhYJF1PlnvmegCfIBvpR-20" target="zhYJF1PlnvmegCfIBvpR-27">
          <mxGeometry relative="1" as="geometry" />
        </mxCell>
        <mxCell id="zhYJF1PlnvmegCfIBvpR-20" value="Mostrar resultado &quot;No está disponible este tipo de conversión&quot;" style="shape=parallelogram;perimeter=parallelogramPerimeter;whiteSpace=wrap;html=1;fixedSize=1;rounded=1;fillColor=#dae8fc;strokeColor=#6c8ebf;" vertex="1" parent="WIyWlLk6GJQsqaUBKTNV-1">
          <mxGeometry x="120" y="750" width="180" height="80" as="geometry" />
        </mxCell>
        <mxCell id="zhYJF1PlnvmegCfIBvpR-27" value="Fin" style="ellipse;whiteSpace=wrap;html=1;rounded=1;" vertex="1" parent="WIyWlLk6GJQsqaUBKTNV-1">
          <mxGeometry x="170" y="910" width="80" height="80" as="geometry" />
        </mxCell>
        <mxCell id="zhYJF1PlnvmegCfIBvpR-30" value="" style="edgeStyle=orthogonalEdgeStyle;rounded=0;orthogonalLoop=1;jettySize=auto;html=1;" edge="1" parent="WIyWlLk6GJQsqaUBKTNV-1" source="zhYJF1PlnvmegCfIBvpR-29" target="zhYJF1PlnvmegCfIBvpR-9">
          <mxGeometry relative="1" as="geometry" />
        </mxCell>
        <mxCell id="zhYJF1PlnvmegCfIBvpR-29" value="Realizar la conversión ERU a MEX" style="rounded=1;whiteSpace=wrap;html=1;fillColor=#ffe6cc;strokeColor=#d79b00;" vertex="1" parent="WIyWlLk6GJQsqaUBKTNV-1">
          <mxGeometry x="340" y="460" width="120" height="60" as="geometry" />
        </mxCell>
        <mxCell id="zhYJF1PlnvmegCfIBvpR-32" value="" style="edgeStyle=orthogonalEdgeStyle;rounded=0;orthogonalLoop=1;jettySize=auto;html=1;" edge="1" parent="WIyWlLk6GJQsqaUBKTNV-1" source="zhYJF1PlnvmegCfIBvpR-31" target="zhYJF1PlnvmegCfIBvpR-12">
          <mxGeometry relative="1" as="geometry" />
        </mxCell>
        <mxCell id="zhYJF1PlnvmegCfIBvpR-31" value="Realizar la conversión USD a MEX" style="rounded=1;whiteSpace=wrap;html=1;fillColor=#ffe6cc;strokeColor=#d79b00;" vertex="1" parent="WIyWlLk6GJQsqaUBKTNV-1">
          <mxGeometry x="354" y="600" width="120" height="60" as="geometry" />
        </mxCell>
      </root>
    </mxGraphModel>
  </diagram>
</mxfile>
